<svg width="20" height="21" viewBox="0 0 20 21" fill="none" xmlns="http://www.w3.org/2000/svg">
<path d="M18.1868 8.00071L18.2033 8.04749L18.2643 8.24964L18.3154 8.43107L18.3372 8.51392L18.3729 8.66392C18.8362 10.7541 18.498 12.9421 17.4254 14.795C16.3552 16.6536 14.6252 18.0419 12.579 18.6843L12.4347 18.7271L12.2576 18.7729L12.0015 18.8336C11.911 18.8542 11.8173 18.8559 11.7262 18.8386C11.635 18.8214 11.5484 18.7856 11.4717 18.7333C11.395 18.6811 11.3299 18.6137 11.2805 18.5352C11.2311 18.4567 11.1983 18.3688 11.1843 18.2771C11.1556 18.0889 11.1986 17.8968 11.3049 17.7388C11.4111 17.5807 11.5728 17.4684 11.7579 17.4239L11.964 17.3721C12.0926 17.3383 12.2032 17.3058 12.2958 17.2746C13.9391 16.7198 15.3232 15.584 16.1883 14.0807C17.0584 12.5785 17.3495 10.8101 17.0068 9.10821L16.9822 8.99642L16.9493 8.86606L16.9083 8.71678L16.859 8.54892C16.8038 8.36581 16.8194 8.16865 16.9028 7.99652C16.9861 7.8244 17.1311 7.68988 17.309 7.61964C17.3916 7.58698 17.4799 7.57093 17.5688 7.57241C17.6577 7.57389 17.7454 7.59287 17.8269 7.62826C17.9084 7.66365 17.9822 7.71476 18.0439 7.77866C18.1057 7.84257 18.1543 7.91802 18.1868 8.00071ZM2.63756 7.61428C2.65303 7.61904 2.66827 7.62428 2.68327 7.62999C2.86076 7.69917 3.00578 7.8325 3.08959 8.00356C3.1734 8.17462 3.18988 8.37092 3.13577 8.55356C3.07149 8.76999 3.02506 8.95011 2.99649 9.09392C2.65532 10.7944 2.94679 12.561 3.81613 14.0618C4.68193 15.5665 6.06779 16.7029 7.71292 17.2571L7.8222 17.2918L7.88434 17.3096L8.02363 17.3475L8.27149 17.4086C8.45769 17.4523 8.62064 17.5645 8.72801 17.7228C8.83538 17.8811 8.87932 18.074 8.85113 18.2632C8.82467 18.4406 8.72884 18.6002 8.58472 18.707C8.44059 18.8137 8.25996 18.8589 8.08256 18.8325L8.03327 18.8236L7.82756 18.7754L7.64541 18.7289L7.48613 18.6843L7.4147 18.6629C5.37265 18.0187 3.64679 16.6315 2.57863 14.7757C1.50402 12.9196 1.16658 10.7273 1.63327 8.63392L1.66077 8.51964L1.69649 8.38571L1.76577 8.14821L1.79292 8.05892C1.81915 7.97424 1.86181 7.89555 1.91845 7.82735C1.9751 7.75916 2.04463 7.70279 2.12306 7.66146C2.2015 7.62014 2.2873 7.59467 2.37558 7.58652C2.46386 7.57836 2.55288 7.58803 2.63756 7.61428ZM10.0183 4.78571C13.1743 4.78571 15.7326 7.34392 15.7326 10.5C15.7326 13.6561 13.1743 16.2143 10.0183 16.2143C6.8622 16.2143 4.30399 13.6561 4.30399 10.5C4.30399 7.34392 6.86256 4.78571 10.0183 4.78571ZM10.0183 6.21428C7.65149 6.21428 5.73256 8.13321 5.73256 10.5C5.73256 12.8668 7.65149 14.7857 10.0183 14.7857C12.3854 14.7857 14.304 12.8668 14.304 10.5C14.304 8.13321 12.3854 6.21428 10.0183 6.21428ZM10.0183 1.92856C12.1631 1.92593 14.2305 2.72984 15.8101 4.18071L15.8954 4.26178L15.9936 4.35964L16.1043 4.47464L16.2279 4.60642C16.291 4.67445 16.3393 4.75474 16.3699 4.84228C16.4006 4.92982 16.4128 5.02273 16.406 5.11522C16.3991 5.20771 16.3732 5.2978 16.33 5.37985C16.2868 5.4619 16.2271 5.53417 16.1547 5.59214C16.006 5.71124 15.8181 5.77015 15.628 5.75718C15.438 5.74422 15.2597 5.66033 15.1286 5.52214C15.051 5.43999 14.979 5.36654 14.9126 5.30178L14.7876 5.18249L14.7304 5.13142C13.4283 3.98564 11.7527 3.3547 10.0183 3.35714C8.28224 3.35462 6.60514 3.98664 5.30256 5.13428L5.26184 5.17071L5.17149 5.25642L5.06899 5.35821L4.8922 5.54214C4.62077 5.83106 4.17292 5.86356 3.86256 5.61714C3.79296 5.56188 3.73492 5.49345 3.69178 5.41576C3.64863 5.33807 3.62122 5.25264 3.6111 5.16435C3.60099 5.07606 3.60837 4.98664 3.63282 4.9012C3.65728 4.81577 3.69833 4.73599 3.75363 4.66642L3.78577 4.62857L3.93042 4.47464L4.06184 4.33964C4.12423 4.27702 4.18184 4.22166 4.2347 4.17356C5.81321 2.7273 7.87703 1.92614 10.0179 1.92856" fill="#6D6D6D"/>
</svg>
