<svg width="20" height="20" viewBox="0 0 20 20" fill="none" xmlns="http://www.w3.org/2000/svg">
<path d="M2.08334 3.33333C2.08334 3.11232 2.17114 2.90036 2.32742 2.74408C2.4837 2.5878 2.69566 2.5 2.91668 2.5H7.91668L10 5H17.0833C17.3044 5 17.5163 5.0878 17.6726 5.24408C17.8289 5.40036 17.9167 5.61232 17.9167 5.83333V16.6667C17.9167 16.8877 17.8289 17.0996 17.6726 17.2559C17.5163 17.4122 17.3044 17.5 17.0833 17.5H2.91668C2.69566 17.5 2.4837 17.4122 2.32742 17.2559C2.17114 17.0996 2.08334 16.8877 2.08334 16.6667V3.33333Z" stroke="#C9CACB" stroke-width="1.66667" stroke-linejoin="round"/>
<path d="M8.25001 8.75H11.75L12.9167 10.2208L10 13.75L7.08334 10.2208L8.25001 8.75Z" stroke="#C9CACB" stroke-width="1.66667" stroke-linecap="round" stroke-linejoin="round"/>
</svg>
