<svg width="20" height="20" viewBox="0 0 20 20" fill="none" xmlns="http://www.w3.org/2000/svg">
<path d="M15 12.5H13.3333V14.1667H15M15 9.16667H13.3333V10.8333H15M16.6667 15.8333H9.99999V14.1667H11.6667V12.5H9.99999V10.8333H11.6667V9.16667H9.99999V7.5H16.6667M8.33332 5.83333H6.66666V4.16667H8.33332M8.33332 9.16667H6.66666V7.5H8.33332M8.33332 12.5H6.66666V10.8333H8.33332M8.33332 15.8333H6.66666V14.1667H8.33332M4.99999 5.83333H3.33332V4.16667H4.99999M4.99999 9.16667H3.33332V7.5H4.99999M4.99999 12.5H3.33332V10.8333H4.99999M4.99999 15.8333H3.33332V14.1667H4.99999M9.99999 5.83333V2.5H1.66666V17.5H18.3333V5.83333H9.99999Z" fill="#C9CACB"/>
</svg>
