<svg width="17" height="18" viewBox="0 0 17 18" fill="none" xmlns="http://www.w3.org/2000/svg">
<path d="M16.8334 9C16.8334 13.6025 13.1025 17.3333 8.50002 17.3333C3.89752 17.3333 0.166687 13.6025 0.166687 9C0.166687 4.39751 3.89752 0.666672 8.50002 0.666672V2.33334C6.9038 2.33352 5.36062 2.90642 4.15098 3.94791C2.94134 4.9894 2.14553 6.43034 1.90821 8.00882C1.67089 9.5873 2.0078 11.1985 2.85771 12.5497C3.70762 13.9008 5.01411 14.9022 6.53971 15.3717C8.06531 15.8413 9.70875 15.7478 11.1713 15.1084C12.6339 14.469 13.8185 13.3261 14.5098 11.8873C15.2011 10.4485 15.3532 8.8095 14.9386 7.26808C14.5239 5.72667 13.5699 4.3852 12.25 3.48751V5.66667H10.5834V0.666672H15.5834V2.33334H13.5C14.5355 3.10911 15.3758 4.11555 15.9545 5.27278C16.5331 6.43002 16.834 7.70618 16.8334 9Z" fill="#B7B7B7"/>
</svg>
